<svg width="24" height="24" viewBox="0 0 24 24" fill="none" xmlns="http://www.w3.org/2000/svg">
<g clip-path="url(#clip0_11_307)">
<path d="M19.8105 1.15969H17.2082V0H16.1647V1.15969H12.5217V0H11.4783V1.15969H7.8355V0H6.79203V1.15969H4.18946C3.90131 1.15969 3.66772 1.39327 3.66772 1.68142V23.4783C3.66772 23.7664 3.90131 24 4.18946 24H19.8105C20.0987 24 20.3322 23.7664 20.3322 23.4783V1.68142C20.3322 1.39327 20.0987 1.15969 19.8105 1.15969ZM6.79203 2.20315V3.36304H7.8355V2.20315H11.4783V3.36304H12.5217V2.20315H16.1647V3.36304H17.2082V2.20315H19.2888V5.87241H4.71119V2.20315H6.79203ZM4.71119 22.9565V6.91587H19.2888V22.9565H4.71119Z" fill="#090C9B" stroke="#090C9B" stroke-width="0.7"/>
</g>
<defs>
<clipPath id="clip0_11_307">
<rect width="24" height="24" fill="white"/>
</clipPath>
</defs>
</svg>
