<svg width="24" height="24" viewBox="0 0 24 24" fill="none" xmlns="http://www.w3.org/2000/svg">
<path d="M10.7892 13.3603V18.1959H8.0725C7.40391 18.1959 6.86174 18.7381 6.86174 19.4067C6.86174 20.0752 7.40391 20.6174 8.0725 20.6174H10.7892V22.7888C10.7892 23.4574 11.3314 23.9996 12 23.9996C12.6686 23.9996 13.2108 23.4574 13.2108 22.7888V20.6174H15.9275C16.5961 20.6174 17.1383 20.0752 17.1383 19.4067C17.1383 18.7381 16.5961 18.1959 15.9275 18.1959H13.2108V13.3603C16.3488 12.7879 18.7353 10.0362 18.7353 6.73572C18.7357 3.02179 15.7139 0 12 0C8.28607 0 5.26428 3.02179 5.26428 6.73572C5.26428 10.0362 7.65125 12.7879 10.7892 13.3603ZM12 2.42191C14.3787 2.42191 16.3138 4.357 16.3138 6.73572C16.3138 9.11444 14.3787 11.0495 12 11.0495C9.62128 11.0495 7.68619 9.11444 7.68619 6.73572C7.68619 4.357 9.62128 2.42191 12 2.42191Z" fill="#090C9B"/>
</svg>
