<svg width="24" height="25" viewBox="0 0 24 25" fill="none" xmlns="http://www.w3.org/2000/svg">
<path d="M11.9999 0.5C6.64074 0.5 2.28076 4.85998 2.28076 10.2192C2.28076 12.4305 3.00545 14.5131 4.37651 16.2419C6.15178 18.4802 11.3143 23.7948 11.5332 24.0199L11.9999 24.5L12.4666 24.02C12.6856 23.7947 17.8497 18.4789 19.6252 16.2399C20.9951 14.5126 21.7191 12.4307 21.7191 10.2192C21.7191 4.85998 17.3591 0.5 11.9999 0.5ZM18.6051 15.4309C17.1757 17.2333 13.3372 21.2429 11.9999 22.6297C10.6628 21.2429 6.82562 17.2346 5.39662 15.4328C4.20999 13.9366 3.58275 12.1337 3.58275 10.2192C3.58275 5.5779 7.35866 1.80199 11.9999 1.80199C16.6411 1.80199 20.4171 5.5779 20.417 10.2192C20.417 12.1339 19.7905 13.9361 18.6051 15.4309Z" fill="#090C9B" stroke="#090C9B" stroke-width="0.6"/>
<path d="M11.9999 4.35812C8.82763 4.35812 6.24683 6.93893 6.24683 10.1112C6.24683 13.2835 8.8277 15.8643 11.9999 15.8643C15.1722 15.8643 17.753 13.2835 17.753 10.1112C17.753 6.939 15.1722 4.35812 11.9999 4.35812ZM11.9999 14.5624C9.54555 14.5624 7.54882 12.5656 7.54882 10.1112C7.54882 7.65685 9.54562 5.66012 11.9999 5.66012C14.4543 5.66012 16.451 7.65692 16.4511 10.1112C16.4511 12.5656 14.4543 14.5624 11.9999 14.5624Z" fill="#090C9B" stroke="#090C9B" stroke-width="0.6"/>
</svg>
