<svg width="24" height="25" viewBox="0 0 24 25" fill="none" xmlns="http://www.w3.org/2000/svg">
<g clip-path="url(#clip0_11_380)">
<path d="M23.4 6.5C23.7316 6.5 24 6.23159 24 5.9V1.1C24 0.768406 23.7316 0.5 23.4 0.5H15C14.6684 0.5 14.4 0.768406 14.4 1.1V7.7H6C2.69161 7.7 0 10.3916 0 13.7V23.3C0 23.9628 0.537188 24.5 1.2 24.5H6H10.8H13.2H18H22.8C23.4628 24.5 24 23.9628 24 23.3V13.7C24 10.3916 21.3084 7.7 18 7.7V6.5H23.4ZM10.8 23.3H6H1.2V13.7C1.2 11.0488 3.3488 8.9 6 8.9C8.6512 8.9 10.8 11.0488 10.8 13.7V23.3ZM22.8 13.7V23.3H18H13.2H12V13.7C12 11.7304 11.0332 9.99439 9.5632 8.9H14.4V15.5C14.4 16.4924 15.2076 17.3 16.2 17.3C17.1924 17.3 18 16.4924 18 15.5V8.9C20.6512 8.9 22.8 11.0488 22.8 13.7ZM17.4 5.3C17.0684 5.3 16.8 5.56841 16.8 5.9V15.5C16.8 15.8304 16.5312 16.1 16.2 16.1C15.8688 16.1 15.6 15.8304 15.6 15.5V1.7H22.8V5.3H17.4Z" fill="#090C9B" stroke="#090C9B" stroke-width="0.5"/>
</g>
<defs>
<clipPath id="clip0_11_380">
<rect width="24" height="24" fill="white" transform="translate(0 0.5)"/>
</clipPath>
</defs>
</svg>
